<?xml version="1.0" encoding="UTF-8"?> <svg xmlns="http://www.w3.org/2000/svg" width="1187" height="476" viewBox="0 0 1187 476" fill="none"> <path d="M492.462 268.308L508.592 236.388H513.827V277.81H508.592V245.861L492.462 277.81H487.255V236.388H492.462V268.308ZM545.691 236.388V240.883H530.214V236.388H545.691ZM550.3 236.388V277.81H545.065V236.388H550.3ZM528.45 236.388H533.657L532.917 256.672C532.822 259.593 532.642 262.201 532.376 264.496C532.111 266.772 531.732 268.754 531.238 270.442C530.745 272.111 530.1 273.495 529.304 274.595C528.507 275.676 527.53 276.483 526.374 277.014C525.236 277.545 523.879 277.81 522.305 277.81H520.94V273.344L521.935 273.258C522.808 273.182 523.557 272.945 524.183 272.547C524.828 272.13 525.359 271.504 525.776 270.669C526.212 269.835 526.563 268.754 526.829 267.426C527.113 266.098 527.331 264.477 527.483 262.561C527.635 260.627 527.749 258.37 527.824 255.79L528.45 236.388ZM565.008 268.308L581.139 236.388H586.374V277.81H581.139V245.861L565.008 277.81H559.802V236.388H565.008V268.308Z" fill="#013BA6"></path> <path d="M48.4439 12.514C14.1615 12.514 -3.38924 22.9752 2.94201 91.673C4.60608 109.612 5.77613 125.407 6.60817 139.777L95.1677 67.7792C95.4278 20.4421 78.2671 12.514 48.4439 12.514Z" fill="white" stroke="#013BA6" stroke-width="0.831656" stroke-linecap="round" stroke-linejoin="round"></path> <path d="M2.99086 394.901C-3.3924 463.611 14.1583 474.06 48.4927 474.06C78.3159 474.06 95.4766 466.132 95.2166 418.795L6.709 346.784C5.82496 361.167 4.65494 376.962 2.99086 394.901Z" fill="white" stroke="#013BA6" stroke-width="0.831656" stroke-linecap="round" stroke-linejoin="round"></path> <path d="M8.56927 243.296C8.56927 276.957 8.99825 306.148 6.65815 346.812L95.1658 418.822C95.1658 411.771 94.7107 403.843 93.8657 394.916C87.4955 326.206 88.2884 288.867 88.2884 243.308C88.2884 197.749 87.4955 160.41 93.8657 91.7004C94.6978 82.7737 95.1658 74.8456 95.1658 67.7943L6.65816 139.805C9.02426 180.444 8.56928 209.635 8.56927 243.296Z" fill="#1C81EB" stroke="#013BA6" stroke-width="0.831656" stroke-linecap="round" stroke-linejoin="round"></path> <path d="M50.4818 196.518C41.6024 199.502 32.58 198.564 26.8598 193.206C21.1396 187.847 20.1516 179.408 23.3367 171.09L50.4818 196.518Z" fill="#717A87" stroke="#284664" stroke-width="0.831656" stroke-linecap="round" stroke-linejoin="round"></path> <path d="M46.3909 149.499C55.2832 146.503 64.3055 147.441 70.0128 152.799C75.72 158.158 76.7211 166.597 73.5359 174.915L46.3909 149.499Z" fill="#717A87" stroke="#284664" stroke-width="0.831656" stroke-linecap="round" stroke-linejoin="round"></path> <path d="M36.5843 161.894C38.6911 159.912 41.1063 158.241 43.7477 156.937L65.5755 177.385C64.1965 179.867 62.4161 182.135 60.2973 184.107C58.1884 186.092 55.7684 187.763 53.121 189.064L31.2931 168.616C32.6814 166.136 34.4657 163.87 36.5843 161.894Z" fill="#717A87" stroke="#284664" stroke-width="0.831656" stroke-linecap="round" stroke-linejoin="round"></path> <path d="M46.3894 337.092C55.2688 340.088 64.2911 339.15 70.0113 333.792C75.7316 328.433 76.7196 319.994 73.5345 311.676L46.3894 337.092Z" fill="#717A87" stroke="#284664" stroke-width="0.831656" stroke-linecap="round" stroke-linejoin="round"></path> <path d="M50.4818 290.087C41.6024 287.091 32.58 288.029 26.8598 293.388C21.1396 298.746 20.1515 307.186 23.3237 315.491L50.4818 290.087Z" fill="#717A87" stroke="#284664" stroke-width="0.831656" stroke-linecap="round" stroke-linejoin="round"></path> <path d="M60.2843 302.482C58.18 300.497 55.7644 298.826 53.121 297.525L31.2931 317.924C34.0979 322.9 38.438 326.97 43.7477 329.603L65.5755 309.143C64.1838 306.683 62.3995 304.437 60.2843 302.482Z" fill="#717A87" stroke="#284664" stroke-width="0.831656" stroke-linecap="round" stroke-linejoin="round"></path> <path d="M728.697 50.0282C730.091 14.7902 718.449 1.66448 699.953 1.66448C681.457 1.66448 670.051 14.5315 671.17 48.9597L699.953 33.6408L728.697 50.0282Z" fill="white" stroke="#284664" stroke-width="0.831656" stroke-linecap="round" stroke-linejoin="round"></path> <path d="M671.095 436.941C671.173 454.898 676.435 462.09 700.861 462.09C725.053 462.09 730.445 455.034 730.614 437.453C723.936 439.877 714.178 442.153 700.861 442.153C686.595 442.153 677.111 439.569 671.095 436.941Z" fill="white" stroke="#284664" stroke-width="0.831656" stroke-linecap="round" stroke-linejoin="round"></path> <path d="M811.667 50.0282C813.018 14.7902 801.74 1.66448 783.822 1.66448C765.904 1.66448 754.855 14.5315 755.938 48.9597L783.822 33.6408L811.667 50.0282Z" fill="white" stroke="#284664" stroke-width="0.831656" stroke-linecap="round" stroke-linejoin="round"></path> <path d="M754.059 436.941C754.137 454.898 759.399 462.09 783.825 462.09C808.017 462.09 813.409 455.034 813.578 437.453C806.899 439.877 797.142 442.153 783.825 442.153C769.559 442.153 760.074 439.569 754.059 436.941Z" fill="white" stroke="#284664" stroke-width="0.831656" stroke-linecap="round" stroke-linejoin="round"></path> <path d="M721.203 231.591C721.203 159.699 726.399 92.2993 728.997 53.6233C729.114 52.0394 729.179 50.5117 729.244 49.0065L700.858 32.6172L672.433 47.9168C672.433 49.7591 672.576 51.635 672.706 53.6008C675.304 92.2768 680.5 159.676 680.5 231.569C680.5 303.461 675.304 370.86 672.706 409.536C671.939 420.949 671.069 430.217 671.095 437.619C677.11 440.214 686.593 442.742 700.858 442.742C714.174 442.742 723.931 440.495 730.608 438.125C730.686 430.621 729.79 421.196 728.997 409.525C726.399 370.883 721.203 303.484 721.203 231.591Z" fill="#1C81EB" stroke="#284664" stroke-width="0.831656" stroke-linecap="round" stroke-linejoin="round"></path> <path d="M712.575 191.25H689.128V210.596H712.575V191.25Z" fill="#717A87" stroke="#284664" stroke-width="0.831656" stroke-linecap="round" stroke-linejoin="round"></path> <path d="M714.382 253.156H687.328V295.716H714.382V253.156Z" fill="#717A87" stroke="#284664" stroke-width="0.831656" stroke-linecap="round" stroke-linejoin="round"></path> <path d="M713.36 323.739C710.13 316.262 707.833 295.713 707.833 295.713H692.078C692.078 295.713 689.78 316.239 686.55 323.739C683.32 331.239 687.692 340.208 699.955 340.208C712.218 340.208 716.577 331.239 713.36 323.739Z" fill="#B9DBF7" stroke="#284664" stroke-width="0.831656" stroke-linecap="round" stroke-linejoin="round"></path> <path d="M707.168 210.594H694.543V253.154H707.168V210.594Z" fill="#B9DBF7" stroke="#284664" stroke-width="0.831656" stroke-linecap="round" stroke-linejoin="round"></path> <path d="M700.858 160.297L689.128 178.87L695.65 191.249H700.858H706.065L712.575 178.87L700.858 160.297Z" fill="#B9DBF7" stroke="#284664" stroke-width="0.831656" stroke-linecap="round" stroke-linejoin="round"></path> <path d="M804.167 231.591C804.167 159.699 809.363 92.2993 811.961 53.6233C812.078 52.0394 812.143 50.5117 812.208 49.0065L783.822 32.6172L755.397 47.9168C755.397 49.7591 755.54 51.635 755.67 53.6008C758.268 92.2768 763.465 159.676 763.465 231.569C763.465 303.461 758.268 370.86 755.67 409.536C754.903 420.949 754.033 430.217 754.059 437.619C760.074 440.214 769.558 442.742 783.822 442.742C797.138 442.742 806.895 440.495 813.572 438.125C813.65 430.621 812.754 421.196 811.961 409.525C809.363 370.883 804.167 303.484 804.167 231.591Z" fill="#1C81EB" stroke="#284664" stroke-width="0.831656" stroke-linecap="round" stroke-linejoin="round"></path> <path d="M795.545 191.25H772.098V210.596H795.545V191.25Z" fill="#717A87" stroke="#284664" stroke-width="0.831656" stroke-linecap="round" stroke-linejoin="round"></path> <path d="M797.347 253.156H770.293V295.716H797.347V253.156Z" fill="#717A87" stroke="#284664" stroke-width="0.831656" stroke-linecap="round" stroke-linejoin="round"></path> <path d="M796.324 323.739C793.094 316.262 790.796 295.713 790.796 295.713H775.041C775.041 295.713 772.744 316.239 769.514 323.739C766.284 331.239 770.656 340.208 782.919 340.208C795.182 340.208 799.54 331.239 796.324 323.739Z" fill="#B9DBF7" stroke="#284664" stroke-width="0.831656" stroke-linecap="round" stroke-linejoin="round"></path> <path d="M790.131 210.594H777.506V253.154H790.131V210.594Z" fill="#B9DBF7" stroke="#284664" stroke-width="0.831656" stroke-linecap="round" stroke-linejoin="round"></path> <path d="M783.821 160.297L772.098 178.87L778.611 191.249H783.821H789.032L795.545 178.87L783.821 160.297Z" fill="#B9DBF7" stroke="#284664" stroke-width="0.831656" stroke-linecap="round" stroke-linejoin="round"></path> <path d="M857.023 32.4102C857.023 32.4102 869.201 30.9258 872.29 38.6445C875.379 46.3633 877.825 80.7177 875.744 80.7177H870.862C869.334 80.7177 868.78 76.787 869.057 74.8633C869.334 72.9395 871.138 66.8477 870.031 62.9883C868.924 59.1289 868.503 55.5664 869.201 53.3339C869.898 51.1014 866.743 47.0995 866.721 43.6914C866.699 40.2833 862.093 37.5995 856.646 37.7539C851.199 37.9083 857.023 32.4102 857.023 32.4102Z" fill="#1C81EB" stroke="#284664" stroke-width="0.831656" stroke-linecap="round" stroke-linejoin="round"></path> <path d="M856.689 84.7518H852.26V441.797H856.689V84.7518Z" fill="white" stroke="#284664" stroke-width="0.831656" stroke-linecap="round" stroke-linejoin="round"></path> <path d="M854.476 87.1767C851.071 87.1149 847.714 86.3067 844.611 84.8017L849.549 79.8023C849.549 79.8023 849.317 63.1773 848.021 58.4273C846.726 53.6773 844.888 53.7842 845.718 48.4404C846.549 43.0967 845.165 37.5986 842.674 36.2686C840.183 34.9386 842.674 32.2548 845.442 31.0673C848.209 29.8798 855.771 27.6592 856.69 29.7373C857.609 31.8155 856.092 39.3798 858.306 41.9092C860.521 44.4386 859.834 63.9729 859.092 79.2086L864.074 84.7542C861.05 86.2171 857.791 87.0396 854.476 87.1767Z" fill="#7D91A1" stroke="#284664" stroke-width="0.831656" stroke-linecap="round" stroke-linejoin="round"></path> <path d="M849.55 79.7524C850.968 80.9253 852.688 81.6011 854.477 81.6881" stroke="#284664" stroke-width="0.831656" stroke-linecap="round" stroke-linejoin="round"></path> <path d="M836.851 440.384C836.851 439.494 844.745 438.769 854.477 438.769C864.208 438.769 872.113 439.494 872.113 440.384C872.113 441.275 864.219 441.999 854.477 441.999C844.734 441.999 836.851 441.275 836.851 440.384Z" fill="#717A87" stroke="#284664" stroke-width="0.831656" stroke-linecap="round" stroke-linejoin="round"></path> <path d="M857.942 434.247H851.012V446.526H857.942V434.247Z" fill="#717A87" stroke="#284664" stroke-width="0.831656" stroke-linecap="round" stroke-linejoin="round"></path> <path d="M854.474 465.918L852.26 446.526H856.689L854.474 465.918Z" fill="white" stroke="#284664" stroke-width="0.831656" stroke-linecap="round" stroke-linejoin="round"></path> <path d="M908.36 32.4102C908.36 32.4102 920.538 30.9258 923.627 38.6445C926.716 46.3633 929.162 80.7177 927.081 80.7177H922.243C920.715 80.7177 920.162 76.787 920.438 74.8633C920.715 72.9395 922.52 66.8477 921.413 62.9883C920.305 59.1289 919.885 55.5664 920.582 53.3339C921.28 51.1014 918.124 47.0995 918.102 43.6914C918.08 40.2833 913.475 37.5995 908.028 37.7539C902.581 37.9083 908.36 32.4102 908.36 32.4102Z" fill="#1C81EB" stroke="#284664" stroke-width="0.831656" stroke-linecap="round" stroke-linejoin="round"></path> <path d="M908.029 84.7518H903.6V441.797H908.029V84.7518Z" fill="white" stroke="#284664" stroke-width="0.831656" stroke-linecap="round" stroke-linejoin="round"></path> <path d="M905.817 87.1767C902.412 87.1149 899.055 86.3067 895.952 84.8017L900.89 79.8023C900.89 79.8023 900.657 63.1773 899.362 58.4273C898.067 53.6773 896.229 53.7842 897.059 48.4404C897.89 43.0967 896.506 37.5986 894.015 36.2686C891.524 34.9386 894.015 32.2548 896.782 31.0673C899.55 29.8798 907.112 27.6592 908.031 29.7373C908.95 31.8155 907.4 39.3798 909.614 41.9092C911.828 44.4386 911.142 63.9729 910.4 79.2086L915.382 84.7542C912.367 86.2106 909.12 87.033 905.817 87.1767Z" fill="#7D91A1" stroke="#284664" stroke-width="0.831656" stroke-linecap="round" stroke-linejoin="round"></path> <path d="M900.886 79.7524C902.304 80.9253 904.024 81.6011 905.813 81.6881" stroke="#284664" stroke-width="0.831656" stroke-linecap="round" stroke-linejoin="round"></path> <path d="M888.187 440.384C888.187 439.494 896.081 438.769 905.812 438.769C915.544 438.769 923.449 439.494 923.449 440.384C923.449 441.275 915.555 441.999 905.812 441.999C896.07 441.999 888.187 441.275 888.187 440.384Z" fill="#717A87" stroke="#284664" stroke-width="0.831656" stroke-linecap="round" stroke-linejoin="round"></path> <path d="M909.281 434.247H902.351V446.526H909.281V434.247Z" fill="#717A87" stroke="#284664" stroke-width="0.831656" stroke-linecap="round" stroke-linejoin="round"></path> <path d="M905.814 465.918L903.6 446.526H908.029L905.814 465.918Z" fill="white" stroke="#284664" stroke-width="0.831656" stroke-linecap="round" stroke-linejoin="round"></path> <path d="M211.028 157.231C211.028 157.231 204.437 151.862 211.028 148.679C217.619 145.497 243.643 157.231 253.639 178.484L243.205 181.609L211.028 157.231Z" fill="#717A87" stroke="#284664" stroke-width="0.831656" stroke-linecap="round" stroke-linejoin="round"></path> <path d="M282.33 170.784C282.33 170.784 288.935 165.416 282.33 162.233C275.725 159.05 249.715 170.784 239.719 192.038L250.166 195.162L282.33 170.784Z" fill="#717A87" stroke="#284664" stroke-width="0.831656" stroke-linecap="round" stroke-linejoin="round"></path> <path d="M282.479 170.8C282.479 170.8 268.463 170.8 249.126 177.987C242.6 181.265 236.838 186.063 232.258 192.03C227.678 197.998 224.396 204.986 222.651 212.485C213.079 251.604 225.072 321.027 307.956 297.309C295.648 294.258 266.398 269.704 266.398 269.704C259.519 247.688 282.479 170.8 282.479 170.8Z" fill="#F6FAFE" stroke="#284664" stroke-width="0.831656" stroke-linecap="round" stroke-linejoin="round"></path> <path d="M311.199 315.276C316.546 313.428 321.88 311.902 326.885 310.67C322.003 303.542 314.577 298.232 309.258 297.557C308.861 297.557 308.423 297.411 307.972 297.293C225.047 321.011 213.082 251.603 222.654 212.484C224.399 204.985 227.681 197.997 232.261 192.029C236.84 186.061 242.603 181.264 249.129 177.986L246.804 175.815C226.292 156.747 211.03 157.231 211.03 157.231C213.547 190.483 201.226 245.736 193.021 274.573C191.032 281.769 189.596 289.127 188.727 296.575C198.696 298.511 214.176 304.231 227.44 311.638C243.85 320.777 290.003 322.61 311.199 315.276Z" fill="#1C81EB" stroke="#284664" stroke-width="0.831656" stroke-linecap="round" stroke-linejoin="round"></path> <path d="M311.198 315.275C290.002 322.609 243.849 320.776 227.439 311.608C214.174 304.275 198.721 298.481 188.725 296.545C185.99 318.546 185.73 338.143 197.012 338.143H234.96C239.514 321.025 278.255 338.143 278.255 338.143H326.582C334.787 329.342 332.49 318.825 326.883 310.67C321.878 311.902 316.545 313.427 311.198 315.275Z" fill="#717A87" stroke="#284664" stroke-width="0.831656" stroke-linecap="round" stroke-linejoin="round"></path> <path d="M271.925 247.539H232.404V260.681H271.925V247.539Z" fill="#B9DBF7" stroke="#284664" stroke-width="0.831656" stroke-linecap="round" stroke-linejoin="round"></path> <path d="M232.402 247.539H227.889V260.681H232.402V247.539Z" fill="#284664" stroke="#284664" stroke-width="0.831656" stroke-linecap="round" stroke-linejoin="round"></path> <path d="M215.131 256.282C215.131 257.449 215.563 258.568 216.332 259.393C217.102 260.218 218.145 260.682 219.233 260.682H227.889V247.481H219.233C218.145 247.481 217.102 247.945 216.332 248.77C215.563 249.595 215.131 250.714 215.131 251.881V256.282Z" stroke="#284664" stroke-width="0.831656" stroke-linecap="round" stroke-linejoin="round"></path> <path d="M271.924 247.539H252.164V260.681H271.924V247.539Z" fill="#717A87" stroke="#284664" stroke-width="0.831656" stroke-linecap="round" stroke-linejoin="round"></path> <path d="M233.405 218.524L232.463 231.628L271.866 234.887L272.808 221.784L233.405 218.524Z" fill="#B9DBF7" stroke="#284664" stroke-width="0.831656" stroke-linecap="round" stroke-linejoin="round"></path> <path d="M228.91 218.159L227.968 231.262L232.467 231.635L233.409 218.531L228.91 218.159Z" fill="#284664" stroke="#284664" stroke-width="0.831656" stroke-linecap="round" stroke-linejoin="round"></path> <path d="M215.557 225.802C215.474 226.965 215.825 228.116 216.533 229.001C217.24 229.887 218.247 230.435 219.331 230.525L227.974 231.244L228.917 218.145L220.275 217.471C219.191 217.382 218.118 217.758 217.292 218.517C216.466 219.276 215.955 220.356 215.872 221.519L215.557 225.802Z" stroke="#284664" stroke-width="0.831656" stroke-linecap="round" stroke-linejoin="round"></path> <path d="M255.978 222.283L254.998 235.425L274.758 237.121L275.739 223.978L255.978 222.283Z" fill="#717A87" stroke="#284664" stroke-width="0.834313" stroke-linecap="round" stroke-linejoin="round"></path> <path d="M227.175 180.482C226.195 180.257 225.183 180.242 224.197 180.438C223.211 180.633 222.27 181.034 221.429 181.619C220.588 182.204 219.862 182.961 219.294 183.847C218.725 184.733 218.325 185.73 218.116 186.782C217.906 187.833 217.892 188.919 218.074 189.976C218.256 191.034 218.631 192.043 219.176 192.945C219.721 193.847 220.427 194.626 221.253 195.236C222.079 195.845 223.008 196.275 223.989 196.499L278.511 210.037L281.711 194.006L227.175 180.482Z" fill="#1C81EB" stroke="#284664" stroke-width="0.831656" stroke-linecap="round" stroke-linejoin="round"></path> <path d="M266.277 269.19C266.277 269.19 261.627 274.822 244.752 277.99" stroke="#284664" stroke-width="0.831656" stroke-linecap="round" stroke-linejoin="round"></path> <path d="M268.001 270.995C266.185 275.285 263.238 278.91 259.522 281.424" stroke="#284664" stroke-width="0.831656" stroke-linecap="round" stroke-linejoin="round"></path> <path d="M265.36 304.567C265.81 304.885 266.315 305.105 266.845 305.214C267.375 305.323 267.92 305.319 268.448 305.202C268.977 305.085 269.478 304.857 269.925 304.531C270.371 304.206 270.753 303.789 271.049 303.305L285.489 279.837L275.261 272.62L260.806 296.089C260.211 297.064 260 298.252 260.221 299.393C260.441 300.534 261.075 301.535 261.982 302.176L265.36 304.567Z" fill="#717A87" stroke="#284664" stroke-width="0.831656" stroke-linecap="round" stroke-linejoin="round"></path> <path d="M283.369 313.604C283.818 313.924 284.322 314.145 284.852 314.255C285.381 314.365 285.926 314.362 286.454 314.246C286.982 314.13 287.484 313.904 287.931 313.58C288.378 313.256 288.76 312.841 289.057 312.358L301.898 291.236L291.669 284.005L278.815 305.126C278.518 305.61 278.313 306.151 278.211 306.719C278.109 307.288 278.113 307.872 278.223 308.439C278.332 309.006 278.544 309.544 278.848 310.023C279.151 310.501 279.54 310.911 279.991 311.228L283.369 313.604Z" fill="#717A87" stroke="#284664" stroke-width="0.831656" stroke-linecap="round" stroke-linejoin="round"></path> <path d="M203.972 284.008C203.972 282.464 204.399 280.954 205.199 279.671C205.999 278.387 207.136 277.387 208.466 276.797C209.796 276.207 211.26 276.053 212.671 276.355C214.083 276.658 215.379 277.402 216.396 278.495C217.413 279.588 218.105 280.98 218.384 282.494C218.663 284.009 218.517 285.578 217.964 287.004C217.412 288.43 216.477 289.647 215.279 290.503C214.081 291.359 212.673 291.814 211.233 291.811C210.279 291.811 209.333 291.609 208.451 291.217C207.569 290.824 206.768 290.249 206.094 289.524C205.419 288.8 204.885 287.939 204.521 286.993C204.157 286.046 203.97 285.032 203.972 284.008Z" fill="white" stroke="#284664" stroke-width="0.831656" stroke-linecap="round" stroke-linejoin="round"></path> <path d="M297.195 157.231C297.195 157.231 290.604 151.848 297.195 148.68C303.786 145.511 329.81 157.231 339.806 178.47L329.358 181.609L297.195 157.231Z" fill="#717A87" stroke="#284664" stroke-width="0.831656" stroke-linecap="round" stroke-linejoin="round"></path> <path d="M368.522 170.78C368.522 170.78 375.114 165.412 368.522 162.229C361.931 159.046 335.907 170.78 325.911 192.034L336.345 195.158L368.522 170.78Z" fill="#717A87" stroke="#284664" stroke-width="0.831656" stroke-linecap="round" stroke-linejoin="round"></path> <path d="M368.643 170.798C368.643 170.798 354.627 170.798 335.29 177.985C328.761 181.259 322.997 186.055 318.416 192.023C313.836 197.992 310.556 204.982 308.816 212.483C299.243 251.588 311.236 321.025 394.12 297.293C381.812 294.242 352.562 269.688 352.562 269.688C345.67 247.686 368.643 170.798 368.643 170.798Z" fill="#F6FAFE" stroke="#284664" stroke-width="0.831656" stroke-linecap="round" stroke-linejoin="round"></path> <path d="M397.363 315.305C402.696 313.457 408.043 311.932 413.048 310.685C408.166 303.571 400.74 298.261 395.421 297.587C394.988 297.523 394.559 297.435 394.135 297.323C311.251 321.026 299.259 251.618 308.831 212.514C310.571 205.012 313.851 198.022 318.432 192.053C323.012 186.085 328.777 181.289 335.306 178.015C334.54 177.296 333.788 176.548 332.981 175.844C312.468 156.776 297.207 157.26 297.207 157.26C299.723 190.512 287.402 245.751 279.197 274.602C277.209 281.799 275.769 289.157 274.89 296.604C284.859 298.54 300.353 304.261 313.617 311.668C330.013 320.776 376.166 322.639 397.363 315.305Z" fill="#1C81EB" stroke="#284664" stroke-width="0.831656" stroke-linecap="round" stroke-linejoin="round"></path> <path d="M397.362 315.305C376.166 322.639 330.013 320.805 313.603 311.638C300.338 304.231 284.886 298.437 274.876 296.574C272.141 318.576 271.895 338.157 283.176 338.157H321.124C325.678 321.055 364.419 338.157 364.419 338.157H412.746C420.951 329.357 418.654 318.854 413.047 310.684C408.042 311.902 402.709 313.427 397.362 315.305Z" fill="#717A87" stroke="#284664" stroke-width="0.831656" stroke-linecap="round" stroke-linejoin="round"></path> <path d="M325.568 256.281C325.568 257.448 326 258.567 326.77 259.392C327.539 260.217 328.582 260.681 329.67 260.681H338.34V247.48H329.67C328.582 247.48 327.539 247.944 326.77 248.769C326 249.594 325.568 250.713 325.568 251.88V256.281Z" fill="#284664" stroke="#284664" stroke-width="0.831656" stroke-linecap="round" stroke-linejoin="round"></path> <path d="M358.087 247.539H338.327V260.681H358.087V247.539Z" fill="#717A87" stroke="#284664" stroke-width="0.831656" stroke-linecap="round" stroke-linejoin="round"></path> <path d="M326.579 226.241C326.397 227.391 326.647 228.571 327.275 229.522C327.904 230.474 328.858 231.119 329.929 231.316L338.463 232.886L340.528 219.934L331.994 218.365C330.923 218.169 329.823 218.438 328.935 219.111C328.048 219.785 327.447 220.809 327.263 221.958L326.579 226.241Z" fill="#284664" stroke="#284664" stroke-width="0.831656" stroke-linecap="round" stroke-linejoin="round"></path> <path d="M340.523 219.945L338.457 232.899L357.934 236.474L360.001 223.52L340.523 219.945Z" fill="#717A87" stroke="#284664" stroke-width="0.831656" stroke-linecap="round" stroke-linejoin="round"></path> <path d="M294.35 175.343L291.164 191.361L299.752 193.546L302.938 177.529L294.35 175.343Z" fill="#1C81EB" stroke="#284664" stroke-width="0.831656" stroke-linecap="round" stroke-linejoin="round"></path> <path d="M367.867 194.017L334.596 185.569L331.41 201.586L364.681 210.035L367.867 194.017Z" fill="#1C81EB" stroke="#284664" stroke-width="0.831656" stroke-linecap="round" stroke-linejoin="round"></path> <path d="M302.938 177.531L299.751 193.548L331.409 201.586L334.595 185.569L302.938 177.531Z" fill="white" stroke="#284664" stroke-width="0.831656" stroke-linecap="round" stroke-linejoin="round"></path> <path d="M352.425 269.19C352.425 269.19 347.789 274.822 330.914 277.99" stroke="#284664" stroke-width="0.831656" stroke-linecap="round" stroke-linejoin="round"></path> <path d="M354.162 270.993C352.344 275.286 349.391 278.912 345.67 281.422" stroke="#284664" stroke-width="0.831656" stroke-linecap="round" stroke-linejoin="round"></path> <path d="M357.501 294.77C358.343 295.384 359.328 295.735 360.345 295.782C360.732 295.822 361.123 295.756 361.48 295.589C361.836 295.422 362.147 295.16 362.383 294.828L371.654 279.706L361.412 272.489L352.113 287.656C351.925 288.019 351.826 288.428 351.826 288.844C351.826 289.26 351.925 289.668 352.113 290.032C352.556 291.018 353.248 291.851 354.109 292.437L357.501 294.77Z" fill="#B9DBF7" stroke="#284664" stroke-width="0.831656" stroke-linecap="round" stroke-linejoin="round"></path> <path d="M375.797 303.395C376.633 304.009 377.604 304.378 378.614 304.465C378.975 304.526 379.345 304.483 379.686 304.342C380.027 304.2 380.327 303.964 380.556 303.659L388.063 291.22L377.821 284.004L370.313 296.427C370.139 296.772 370.054 297.16 370.066 297.552C370.078 297.944 370.187 298.325 370.381 298.657C370.86 299.615 371.562 300.424 372.419 301.004L375.797 303.395Z" fill="#B9DBF7" stroke="#284664" stroke-width="0.831656" stroke-linecap="round" stroke-linejoin="round"></path> <path d="M290.127 284.006C290.133 282.464 290.564 280.959 291.366 279.68C292.168 278.401 293.305 277.405 294.634 276.819C295.963 276.232 297.424 276.081 298.833 276.384C300.242 276.687 301.536 277.431 302.551 278.522C303.567 279.613 304.258 281.002 304.538 282.514C304.818 284.026 304.674 285.593 304.125 287.018C303.575 288.442 302.645 289.66 301.451 290.518C300.257 291.376 298.853 291.835 297.416 291.838C296.457 291.84 295.507 291.639 294.621 291.246C293.735 290.853 292.93 290.275 292.253 289.548C291.576 288.82 291.039 287.955 290.674 287.004C290.31 286.053 290.124 285.034 290.127 284.006Z" fill="white" stroke="#284664" stroke-width="0.831656" stroke-linecap="round" stroke-linejoin="round"></path> <path d="M294.5 284.004C294.5 283.389 294.67 282.788 294.989 282.277C295.307 281.765 295.76 281.367 296.29 281.131C296.819 280.896 297.402 280.835 297.965 280.955C298.527 281.075 299.044 281.371 299.449 281.806C299.854 282.24 300.131 282.794 300.242 283.398C300.354 284.001 300.297 284.626 300.077 285.194C299.858 285.763 299.486 286.248 299.01 286.59C298.533 286.932 297.972 287.114 297.399 287.114C296.63 287.114 295.893 286.786 295.349 286.203C294.805 285.62 294.5 284.829 294.5 284.004Z" fill="#284664"></path> <path d="M308.582 184.439L307.557 189.558" stroke="#284664" stroke-width="0.831656" stroke-linecap="round" stroke-linejoin="round"></path> <path d="M317.022 186.995L315.996 192.114" stroke="#284664" stroke-width="0.831656" stroke-linecap="round" stroke-linejoin="round"></path> <path d="M326.388 189.557L325.363 194.662" stroke="#284664" stroke-width="0.831656" stroke-linecap="round" stroke-linejoin="round"></path> <path d="M978.26 142.763C978.26 142.763 971.668 137.394 978.26 134.211C984.851 131.028 1010.87 142.763 1020.87 164.016L1010.44 167.14L978.26 142.763Z" fill="#717A87" stroke="#284664" stroke-width="0.831656" stroke-linecap="round" stroke-linejoin="round"></path> <path d="M1049.56 156.313C1049.56 156.313 1056.17 150.945 1049.56 147.762C1042.96 144.579 1016.95 156.313 1006.95 177.567L1017.4 180.691L1049.56 156.313Z" fill="#717A87" stroke="#284664" stroke-width="0.831656" stroke-linecap="round" stroke-linejoin="round"></path> <path d="M1049.71 156.328C1049.71 156.328 1035.69 156.328 1016.36 163.516C1009.83 166.794 1004.07 171.591 999.489 177.559C994.909 183.527 991.627 190.515 989.882 198.014C980.31 237.133 992.303 306.556 1075.19 282.838C1062.88 279.787 1033.63 255.233 1033.63 255.233C1026.75 233.217 1049.71 156.328 1049.71 156.328Z" fill="#F6FAFE" stroke="#284664" stroke-width="0.831656" stroke-linecap="round" stroke-linejoin="round"></path> <path d="M1078.43 300.806C1083.78 298.958 1089.11 297.432 1094.12 296.2C1089.24 289.072 1081.81 283.762 1076.49 283.087C1076.09 283.087 1075.66 282.941 1075.21 282.823C992.28 306.541 980.315 237.133 989.887 198.014C991.632 190.515 994.914 183.527 999.493 177.559C1004.07 171.591 1009.84 166.794 1016.36 163.515L1014.04 161.345C993.525 142.276 978.263 142.761 978.263 142.761C980.78 176.012 968.458 231.266 960.253 260.103C958.265 267.299 956.829 274.657 955.96 282.105C965.929 284.041 981.409 289.761 994.673 297.168C1011.08 306.306 1057.24 308.14 1078.43 300.806Z" fill="#1C81EB" stroke="#284664" stroke-width="0.831656" stroke-linecap="round" stroke-linejoin="round"></path> <path d="M1078.43 300.807C1057.23 308.141 1011.08 306.308 994.671 297.14C981.406 289.806 965.953 284.013 955.957 282.076C953.222 304.078 952.962 323.674 964.244 323.674H1002.19C1006.75 306.557 1045.49 323.674 1045.49 323.674H1093.81C1102.02 314.874 1099.72 304.357 1094.11 296.202C1089.11 297.434 1083.78 298.959 1078.43 300.807Z" fill="#717A87" stroke="#284664" stroke-width="0.831656" stroke-linecap="round" stroke-linejoin="round"></path> <path d="M1039.16 233.07H999.636V246.212H1039.16V233.07Z" fill="#B9DBF7" stroke="#284664" stroke-width="0.831656" stroke-linecap="round" stroke-linejoin="round"></path> <path d="M999.635 233.07H995.122V246.212H999.635V233.07Z" fill="#284664" stroke="#284664" stroke-width="0.831656" stroke-linecap="round" stroke-linejoin="round"></path> <path d="M982.363 241.813C982.363 242.981 982.795 244.1 983.565 244.925C984.334 245.75 985.377 246.214 986.466 246.214H995.122V233.013H986.466C985.377 233.013 984.334 233.476 983.565 234.302C982.795 235.127 982.363 236.246 982.363 237.413V241.813Z" stroke="#284664" stroke-width="0.831656" stroke-linecap="round" stroke-linejoin="round"></path> <path d="M1039.16 233.07H1019.4V246.212H1039.16V233.07Z" fill="#717A87" stroke="#284664" stroke-width="0.831656" stroke-linecap="round" stroke-linejoin="round"></path> <path d="M1000.64 204.057L999.694 217.161L1039.1 220.42L1040.04 207.317L1000.64 204.057Z" fill="#B9DBF7" stroke="#284664" stroke-width="0.831656" stroke-linecap="round" stroke-linejoin="round"></path> <path d="M996.142 203.693L995.199 216.796L999.699 217.168L1000.64 204.065L996.142 203.693Z" fill="#284664" stroke="#284664" stroke-width="0.831656" stroke-linecap="round" stroke-linejoin="round"></path> <path d="M982.789 211.333C982.706 212.496 983.057 213.647 983.765 214.532C984.473 215.418 985.479 215.966 986.564 216.056L995.206 216.775L996.15 203.676L987.507 203.001C986.423 202.912 985.35 203.289 984.524 204.048C983.699 204.807 983.188 205.887 983.104 207.05L982.789 211.333Z" stroke="#284664" stroke-width="0.831656" stroke-linecap="round" stroke-linejoin="round"></path> <path d="M1023.21 207.81L1022.23 220.952L1041.99 222.648L1042.97 209.505L1023.21 207.81Z" fill="#717A87" stroke="#284664" stroke-width="0.834313" stroke-linecap="round" stroke-linejoin="round"></path> <path d="M994.41 166.012C993.43 165.787 992.418 165.772 991.432 165.967C990.446 166.163 989.506 166.564 988.664 167.149C987.823 167.734 987.097 168.491 986.529 169.377C985.96 170.263 985.56 171.26 985.351 172.312C985.142 173.363 985.128 174.449 985.31 175.506C985.491 176.564 985.866 177.573 986.411 178.475C986.957 179.377 987.662 180.156 988.488 180.765C989.314 181.375 990.244 181.805 991.224 182.029L1045.75 195.567L1048.95 179.535L994.41 166.012Z" fill="#1C81EB" stroke="#284664" stroke-width="0.831656" stroke-linecap="round" stroke-linejoin="round"></path> <path d="M1033.51 254.721C1033.51 254.721 1028.86 260.354 1011.98 263.522" stroke="#284664" stroke-width="0.831656" stroke-linecap="round" stroke-linejoin="round"></path> <path d="M1035.23 256.527C1033.42 260.817 1030.47 264.442 1026.75 266.955" stroke="#284664" stroke-width="0.831656" stroke-linecap="round" stroke-linejoin="round"></path> <path d="M1032.59 290.101C1033.04 290.419 1033.55 290.639 1034.08 290.748C1034.61 290.857 1035.15 290.853 1035.68 290.736C1036.21 290.619 1036.71 290.391 1037.16 290.065C1037.6 289.74 1037.98 289.323 1038.28 288.839L1052.72 265.371L1042.49 258.154L1028.04 281.622C1027.44 282.597 1027.23 283.786 1027.45 284.927C1027.67 286.068 1028.31 287.069 1029.21 287.71L1032.59 290.101Z" fill="#717A87" stroke="#284664" stroke-width="0.831656" stroke-linecap="round" stroke-linejoin="round"></path> <path d="M1050.6 299.137C1051.05 299.456 1051.55 299.677 1052.08 299.788C1052.61 299.898 1053.16 299.895 1053.69 299.779C1054.21 299.663 1054.72 299.437 1055.16 299.113C1055.61 298.789 1055.99 298.373 1056.29 297.89L1069.13 276.769L1058.9 269.538L1046.05 290.659C1045.75 291.142 1045.55 291.684 1045.44 292.252C1045.34 292.821 1045.35 293.405 1045.45 293.972C1045.56 294.539 1045.78 295.077 1046.08 295.555C1046.38 296.034 1046.77 296.444 1047.22 296.761L1050.6 299.137Z" fill="#717A87" stroke="#284664" stroke-width="0.831656" stroke-linecap="round" stroke-linejoin="round"></path> <path d="M971.203 269.536C971.203 267.992 971.63 266.483 972.43 265.2C973.23 263.916 974.367 262.916 975.697 262.326C977.028 261.736 978.491 261.582 979.903 261.884C981.314 262.186 982.611 262.931 983.627 264.024C984.644 265.117 985.336 266.508 985.615 268.023C985.894 269.538 985.748 271.107 985.196 272.533C984.643 273.958 983.708 275.176 982.51 276.032C981.312 276.887 979.904 277.343 978.465 277.34C977.51 277.34 976.565 277.138 975.683 276.745C974.801 276.353 974 275.778 973.325 275.053C972.651 274.329 972.116 273.468 971.752 272.522C971.388 271.575 971.201 270.56 971.203 269.536Z" fill="white" stroke="#284664" stroke-width="0.831656" stroke-linecap="round" stroke-linejoin="round"></path> <path d="M1064.43 142.761C1064.43 142.761 1057.84 137.378 1064.43 134.209C1071.02 131.041 1097.04 142.761 1107.04 164L1096.59 167.139L1064.43 142.761Z" fill="#717A87" stroke="#284664" stroke-width="0.831656" stroke-linecap="round" stroke-linejoin="round"></path> <path d="M1135.75 156.313C1135.75 156.313 1142.35 150.945 1135.75 147.762C1129.16 144.579 1103.14 156.313 1093.14 177.567L1103.58 180.691L1135.75 156.313Z" fill="#717A87" stroke="#284664" stroke-width="0.831656" stroke-linecap="round" stroke-linejoin="round"></path> <path d="M1135.88 156.328C1135.88 156.328 1121.86 156.328 1102.52 163.516C1096 166.79 1090.23 171.586 1085.65 177.554C1081.07 183.523 1077.79 190.513 1076.05 198.014C1066.48 237.119 1078.47 306.556 1161.35 282.823C1149.05 279.773 1119.8 255.219 1119.8 255.219C1112.9 233.217 1135.88 156.328 1135.88 156.328Z" fill="#F6FAFE" stroke="#284664" stroke-width="0.831656" stroke-linecap="round" stroke-linejoin="round"></path> <path d="M1164.59 300.833C1169.93 298.985 1175.27 297.46 1180.28 296.213C1175.4 289.099 1167.97 283.789 1162.65 283.115C1162.22 283.051 1161.79 282.963 1161.37 282.851C1078.48 306.554 1066.49 237.146 1076.06 198.041C1077.8 190.54 1081.08 183.55 1085.66 177.581C1090.24 171.613 1096.01 166.817 1102.54 163.543C1101.77 162.824 1101.02 162.076 1100.21 161.372C1079.7 142.304 1064.44 142.788 1064.44 142.788C1066.95 176.04 1054.63 231.279 1046.43 260.13C1044.44 267.327 1043 274.685 1042.12 282.132C1052.09 284.068 1067.58 289.788 1080.85 297.196C1097.24 306.304 1143.4 308.167 1164.59 300.833Z" fill="#1C81EB" stroke="#284664" stroke-width="0.831656" stroke-linecap="round" stroke-linejoin="round"></path> <path d="M1164.59 300.834C1143.4 308.168 1097.25 306.334 1080.84 297.167C1067.57 289.759 1052.12 283.966 1042.11 282.103C1039.37 304.105 1039.13 323.686 1050.41 323.686H1088.36C1092.91 306.583 1131.65 323.686 1131.65 323.686H1179.98C1188.18 314.885 1185.89 304.383 1180.28 296.213C1175.27 297.431 1169.94 298.956 1164.59 300.834Z" fill="#717A87" stroke="#284664" stroke-width="0.831656" stroke-linecap="round" stroke-linejoin="round"></path> <path d="M1092.8 241.81C1092.8 242.977 1093.23 244.096 1094 244.921C1094.77 245.746 1095.81 246.21 1096.9 246.21H1105.57V233.009H1096.9C1095.81 233.009 1094.77 233.472 1094 234.298C1093.23 235.123 1092.8 236.242 1092.8 237.409V241.81Z" fill="#284664" stroke="#284664" stroke-width="0.831656" stroke-linecap="round" stroke-linejoin="round"></path> <path d="M1125.32 233.07H1105.56V246.212H1125.32V233.07Z" fill="#717A87" stroke="#284664" stroke-width="0.831656" stroke-linecap="round" stroke-linejoin="round"></path> <path d="M1093.81 211.773C1093.63 212.923 1093.88 214.103 1094.51 215.054C1095.14 216.006 1096.09 216.651 1097.16 216.848L1105.7 218.418L1107.76 205.466L1099.23 203.896C1098.16 203.701 1097.05 203.969 1096.17 204.643C1095.28 205.317 1094.68 206.341 1094.5 207.49L1093.81 211.773Z" fill="#284664" stroke="#284664" stroke-width="0.831656" stroke-linecap="round" stroke-linejoin="round"></path> <path d="M1107.76 205.478L1105.69 218.432L1125.17 222.007L1127.23 209.053L1107.76 205.478Z" fill="#717A87" stroke="#284664" stroke-width="0.831656" stroke-linecap="round" stroke-linejoin="round"></path> <path d="M1061.58 160.874L1058.4 176.891L1066.98 179.077L1070.17 163.06L1061.58 160.874Z" fill="#1C81EB" stroke="#284664" stroke-width="0.831656" stroke-linecap="round" stroke-linejoin="round"></path> <path d="M1135.1 179.547L1101.83 171.099L1098.64 187.116L1131.91 195.564L1135.1 179.547Z" fill="#1C81EB" stroke="#284664" stroke-width="0.831656" stroke-linecap="round" stroke-linejoin="round"></path> <path d="M1070.17 163.062L1066.98 179.079L1098.64 187.117L1101.82 171.1L1070.17 163.062Z" fill="white" stroke="#284664" stroke-width="0.831656" stroke-linecap="round" stroke-linejoin="round"></path> <path d="M1119.66 254.719C1119.66 254.719 1115.02 260.351 1098.15 263.519" stroke="#284664" stroke-width="0.831656" stroke-linecap="round" stroke-linejoin="round"></path> <path d="M1121.39 256.524C1119.57 260.817 1116.62 264.443 1112.9 266.953" stroke="#284664" stroke-width="0.831656" stroke-linecap="round" stroke-linejoin="round"></path> <path d="M1124.73 280.302C1125.57 280.917 1126.56 281.268 1127.58 281.315C1127.96 281.355 1128.35 281.289 1128.71 281.122C1129.07 280.955 1129.38 280.693 1129.61 280.361L1138.89 265.239L1128.64 258.022L1119.34 273.189C1119.16 273.552 1119.06 273.961 1119.06 274.377C1119.06 274.792 1119.16 275.201 1119.34 275.565C1119.79 276.551 1120.48 277.384 1121.34 277.97L1124.73 280.302Z" fill="#B9DBF7" stroke="#284664" stroke-width="0.831656" stroke-linecap="round" stroke-linejoin="round"></path> <path d="M1143.03 288.927C1143.86 289.541 1144.84 289.91 1145.85 289.997C1146.21 290.058 1146.58 290.015 1146.92 289.874C1147.26 289.732 1147.56 289.496 1147.79 289.191L1155.3 276.752L1145.05 269.536L1137.55 281.959C1137.37 282.304 1137.29 282.692 1137.3 283.084C1137.31 283.476 1137.42 283.857 1137.61 284.189C1138.09 285.147 1138.79 285.956 1139.65 286.536L1143.03 288.927Z" fill="#B9DBF7" stroke="#284664" stroke-width="0.831656" stroke-linecap="round" stroke-linejoin="round"></path> <path d="M1057.35 269.534C1057.36 267.993 1057.79 266.488 1058.59 265.209C1059.39 263.93 1060.53 262.934 1061.86 262.348C1063.19 261.761 1064.65 261.61 1066.06 261.913C1067.47 262.216 1068.76 262.96 1069.78 264.051C1070.79 265.142 1071.48 266.531 1071.76 268.043C1072.04 269.555 1071.9 271.122 1071.35 272.547C1070.8 273.971 1069.87 275.189 1068.68 276.047C1067.48 276.905 1066.08 277.364 1064.64 277.367C1063.68 277.369 1062.73 277.168 1061.85 276.775C1060.96 276.381 1060.16 275.804 1059.48 275.076C1058.8 274.349 1058.27 273.484 1057.9 272.533C1057.54 271.582 1057.35 270.563 1057.35 269.534Z" fill="white" stroke="#284664" stroke-width="0.831656" stroke-linecap="round" stroke-linejoin="round"></path> <path d="M1061.73 269.536C1061.73 268.921 1061.9 268.32 1062.22 267.809C1062.54 267.297 1062.99 266.899 1063.52 266.663C1064.05 266.428 1064.63 266.366 1065.2 266.486C1065.76 266.606 1066.28 266.903 1066.68 267.337C1067.09 267.772 1067.36 268.326 1067.47 268.929C1067.59 269.533 1067.53 270.158 1067.31 270.726C1067.09 271.294 1066.72 271.78 1066.24 272.122C1065.76 272.463 1065.2 272.646 1064.63 272.646C1063.86 272.646 1063.12 272.318 1062.58 271.735C1062.04 271.152 1061.73 270.361 1061.73 269.536Z" fill="#284664"></path> <path d="M1075.81 169.97L1074.79 175.089" stroke="#284664" stroke-width="0.831656" stroke-linecap="round" stroke-linejoin="round"></path> <path d="M1084.25 172.52L1083.23 177.639" stroke="#284664" stroke-width="0.831656" stroke-linecap="round" stroke-linejoin="round"></path> <path d="M1093.62 175.089L1092.59 180.194" stroke="#284664" stroke-width="0.831656" stroke-linecap="round" stroke-linejoin="round"></path> </svg> 